<?xml version="1.0" standalone="no"?>
<!DOCTYPE svg PUBLIC "-//W3C//DTD SVG 20010904//EN"
 "http://www.w3.org/TR/2001/REC-SVG-20010904/DTD/svg10.dtd">
<svg version="1.0" xmlns="http://www.w3.org/2000/svg"
 width="256.000000pt" height="256.000000pt" viewBox="0 0 256.000000 256.000000"
 preserveAspectRatio="xMidYMid meet">

<g transform="translate(0.000000,256.000000) scale(0.100000,-0.100000)"
fill="#000000" stroke="none">
<path d="M1230 2279 c-14 -5 -71 -56 -128 -112 l-102 -102 106 -106 c104 -104
106 -106 142 -99 72 12 137 -15 173 -73 15 -25 19 -46 17 -94 l-3 -63 100
-100 100 -100 46 6 c97 13 179 -53 186 -150 12 -150 -169 -232 -276 -125 -39
38 -56 99 -43 150 l9 37 -101 101 c-56 56 -105 101 -109 101 -4 0 -7 -123 -7
-273 l0 -273 31 -23 c47 -35 69 -79 69 -137 0 -91 -68 -158 -160 -158 -159 0
-221 199 -91 295 l31 23 0 275 0 276 -30 17 c-51 29 -72 74 -68 145 l4 62
-106 106 -105 105 -313 -319 c-190 -194 -317 -332 -323 -351 -27 -77 -34 -68
464 -568 327 -327 471 -465 495 -473 80 -26 69 -36 570 464 327 327 465 471
473 495 26 80 35 69 -459 566 -260 260 -471 464 -489 472 -37 16 -67 17 -103
3z"/>
</g>
</svg>
