<?xml version="1.0" standalone="no"?>
<!DOCTYPE svg PUBLIC "-//W3C//DTD SVG 20010904//EN"
 "http://www.w3.org/TR/2001/REC-SVG-20010904/DTD/svg10.dtd">
<svg version="1.0" xmlns="http://www.w3.org/2000/svg"
 width="360.000000pt" height="466.000000pt" viewBox="0 0 360.000000 466.000000"
 preserveAspectRatio="xMidYMid meet">

<g transform="translate(0.000000,466.000000) scale(0.100000,-0.100000)"
fill="#000000" stroke="none">
<path d="M1715 4160 c-44 -21 -75 -39 -70 -39 6 0 46 18 90 39 44 21 76 39 70
39 -5 0 -46 -17 -90 -39z"/>
<path d="M1830 4180 c8 -5 20 -10 25 -10 6 0 3 5 -5 10 -8 5 -19 10 -25 10 -5
0 -3 -5 5 -10z"/>
<path d="M1870 4166 c0 -5 44 -26 128 -62 17 -8 32 -12 32 -10 0 5 -44 26
-127 62 -18 8 -33 12 -33 10z"/>
<path d="M1520 4070 c-41 -21 -70 -39 -65 -39 6 0 44 18 85 39 41 21 71 39 65
39 -5 0 -44 -18 -85 -39z"/>
<path d="M2130 4040 c52 -27 100 -49 105 -49 6 0 -33 22 -85 49 -52 27 -99 49
-105 49 -5 0 33 -22 85 -49z"/>
<path d="M1715 4028 c-326 -148 -760 -384 -995 -541 -222 -147 -405 -298 -397
-326 5 -17 113 -388 182 -626 24 -82 78 -267 119 -410 41 -143 86 -299 100
-347 14 -49 37 -127 51 -175 32 -111 79 -169 359 -448 219 -218 460 -416 622
-511 42 -24 44 -25 76 -8 41 21 172 111 258 178 121 93 284 243 440 402 243
248 267 279 295 371 29 95 184 626 195 668 15 56 201 700 231 796 16 53 29
104 29 112 0 48 -313 282 -632 472 -14 9 -81 46 -226 127 -147 82 -577 288
-612 293 -14 3 -55 -9 -95 -27z m-728 -705 c-3 -5 16 -7 41 -5 26 2 67 -2 92
-8 25 -6 70 -12 100 -14 82 -4 264 -47 248 -58 -8 -6 -2 -7 17 -4 19 4 25 3
16 -2 -9 -7 -1 -9 25 -8 36 0 200 -51 191 -60 -2 -2 -34 7 -71 21 -71 27 -113
34 -86 14 13 -9 13 -10 -1 -6 -93 30 -155 46 -212 58 -47 9 -63 15 -50 20 10
4 -4 6 -32 6 -27 -1 -138 8 -245 21 -107 12 -220 23 -250 25 -30 2 7 4 83 5
76 1 136 -1 134 -5z m633 -148 c14 -8 21 -14 15 -14 -5 0 -21 6 -35 14 -14 8
-20 14 -15 14 6 0 21 -6 35 -14z m-390 -65 c-10 -6 33 -10 130 -12 l145 -4
-147 -2 c-82 -1 -148 2 -148 6 0 12 11 22 24 22 6 0 4 -5 -4 -10z m218 3 c-38
-2 -98 -2 -135 0 -38 2 -7 3 67 3 74 0 105 -1 68 -3z m-254 -13 c-6 -6 -137
-1 -144 6 -2 3 30 4 72 2 43 -1 75 -5 72 -8z m-54 -17 c3 -3 -42 -3 -100 -1
-58 3 -96 2 -85 -2 12 -4 -16 -10 -70 -14 -50 -4 -134 -14 -188 -22 -54 -9
-101 -14 -103 -11 -8 7 170 41 218 42 27 0 48 4 48 8 0 5 16 7 34 6 19 -2 38
0 43 4 8 9 194 -1 203 -10z m551 -21 c6 -15 5 -21 -1 -17 -6 3 -10 13 -10 21
0 9 -11 14 -35 14 -19 0 -35 4 -35 8 0 5 16 6 36 3 26 -4 39 -13 45 -29z m26
-9 c-3 -10 -5 -4 -5 12 0 17 2 24 5 18 2 -7 2 -21 0 -30z m-132 -39 c-55 -8
-107 -13 -115 -11 -20 4 123 24 175 24 22 1 -5 -6 -60 -13z m175 -51 c19 -29
76 -60 146 -78 51 -13 53 -14 15 -10 -72 9 -140 44 -172 88 -16 22 -29 47 -29
56 0 10 5 7 13 -9 8 -14 20 -35 27 -47z m-75 37 c-3 -5 -27 -9 -53 -8 l-47 1
50 7 c28 4 51 8 53 8 2 1 0 -2 -3 -8z m-260 -10 c-16 -4 -39 -8 -50 -8 -16 0
-15 2 5 8 14 4 36 8 50 8 22 0 22 -1 -5 -8z m150 0 c-3 -5 -23 -9 -43 -9 l-37
2 40 7 c22 4 41 8 43 9 2 0 0 -3 -3 -9z m178 -100 c19 -39 22 -48 7 -30 -19
24 -61 123 -59 138 1 4 6 -6 12 -23 7 -16 24 -55 40 -85z m-268 90 c-3 -5 -15
-10 -26 -10 -31 0 -224 -48 -307 -76 -94 -32 -228 -87 -347 -141 -5 -2 -1 3
10 12 41 35 249 129 284 128 21 -1 29 2 21 7 -13 8 194 81 222 79 7 -1 -12 -9
-42 -20 -40 -13 -45 -17 -20 -13 26 4 168 33 208 43 2 1 0 -3 -3 -9z m755
-106 c0 -2 -9 0 -20 6 -11 6 -20 13 -20 16 0 2 9 0 20 -6 11 -6 20 -13 20 -16z
m-191 -20 c9 -8 -45 -2 -64 6 -14 7 -8 8 20 3 22 -3 42 -7 44 -9z m297 -55 c3
-6 -17 6 -45 26 -28 20 -51 39 -51 41 0 7 88 -55 96 -67z m-227 35 c29 -8 51
-17 49 -19 -5 -5 -108 25 -108 31 0 6 1 6 59 -12z m-391 -38 c-49 -38 -99
-109 -118 -170 -18 -56 -8 -191 18 -242 11 -22 40 -56 64 -76 43 -35 128 -83
128 -73 0 3 8 1 18 -4 18 -9 56 -17 144 -27 80 -9 73 -18 -7 -10 -135 13 -214
43 -293 111 -62 54 -84 103 -89 205 -7 118 18 183 99 263 32 31 64 57 70 57 6
0 -9 -15 -34 -34z m508 -23 c-5 -5 -56 45 -56 54 0 4 13 -6 30 -22 16 -16 28
-30 26 -32z m-96 8 c106 -36 206 -88 235 -123 l20 -23 -25 21 c-73 62 -229
125 -357 145 -173 26 -282 -31 -324 -171 -7 -22 -15 -40 -19 -40 -9 0 13 68
34 109 63 119 231 151 436 82z m133 6 c7 -6 19 -21 27 -32 12 -15 8 -14 -17 5
-18 14 -32 28 -32 33 -1 11 9 9 22 -6z m140 -46 c-2 -3 -16 8 -31 24 l-27 28
31 -24 c17 -13 30 -26 27 -28z m-23 -50 c0 -3 -11 6 -25 21 -14 15 -25 33 -25
40 0 6 11 -3 25 -22 14 -19 25 -36 25 -39z m130 -93 c0 -14 -34 26 -50 57 -25
51 -23 51 14 0 20 -27 36 -53 36 -57z m-60 52 c0 -5 -5 -10 -11 -10 -5 0 -7 5
-4 10 3 6 8 10 11 10 2 0 4 -4 4 -10z m-46 -50 c7 0 43 -23 80 -50 53 -39 71
-48 84 -40 9 5 12 10 6 10 -13 0 -78 60 -65 60 5 0 15 -7 22 -17 8 -9 26 -24
41 -33 l28 -17 -24 -12 c-22 -12 -29 -9 -80 29 -31 24 -71 50 -88 59 -18 9
-33 23 -35 31 -3 10 -1 9 7 -2 6 -10 17 -18 24 -18z m50 1 c-2 -3 -12 3 -22
13 -16 17 -16 18 5 5 12 -7 20 -15 17 -18z m-797 -103 c-2 -18 -4 -6 -4 27 0
33 2 48 4 33 2 -15 2 -42 0 -60z m23 -84 c34 -70 118 -119 275 -160 50 -12 81
-23 70 -24 -34 0 -165 39 -223 68 -68 33 -126 86 -140 130 -16 46 -8 40 18
-14z m414 -193 c3 -4 -6 -6 -19 -3 -14 2 -25 6 -25 8 0 8 39 4 44 -5z m139
-21 c4 -4 -20 -3 -54 2 -35 4 -65 11 -68 13 -8 8 113 -7 122 -15z m-133 -16
c0 -2 -13 -4 -30 -4 -16 0 -30 4 -30 8 0 5 14 7 30 4 17 -2 30 -6 30 -8z m193
9 c-7 -2 -21 -2 -30 0 -10 3 -4 5 12 5 17 0 24 -2 18 -5z m-5 -79 c102 -60
231 -206 311 -354 22 -41 41 -68 41 -60 0 25 -65 166 -103 222 -32 48 -130
148 -181 183 -11 8 -17 17 -14 21 4 3 51 -39 105 -93 79 -78 108 -115 140
-178 44 -86 68 -160 78 -240 l6 -50 -24 67 c-77 210 -246 418 -400 493 -41 19
-88 38 -105 41 -18 4 -32 10 -32 15 0 12 123 -35 178 -67z m76 68 c3 -5 -8 -6
-25 -4 -16 2 -29 6 -29 8 0 8 49 4 54 -4z m131 -41 c122 -57 241 -181 277
-289 10 -31 17 -57 15 -58 -2 -2 -16 23 -31 55 -58 123 -179 226 -319 273 -45
15 -75 27 -66 27 28 1 132 -38 182 -69 54 -34 65 -37 47 -14 -19 22 -94 64
-164 91 -33 13 -47 21 -31 18 17 -3 57 -19 90 -34z"/>
<path d="M1078 3303 c7 -3 16 -2 19 1 4 3 -2 6 -13 5 -11 0 -14 -3 -6 -6z"/>
<path d="M1228 3283 c7 -3 16 -2 19 1 4 3 -2 6 -13 5 -11 0 -14 -3 -6 -6z"/>
<path d="M1338 3263 c7 -3 16 -2 19 1 4 3 -2 6 -13 5 -11 0 -14 -3 -6 -6z"/>
<path d="M1378 3253 c7 -3 16 -2 19 1 4 3 -2 6 -13 5 -11 0 -14 -3 -6 -6z"/>
<path d="M1528 3213 c7 -3 16 -2 19 1 4 3 -2 6 -13 5 -11 0 -14 -3 -6 -6z"/>
<path d="M1205 2930 c-13 -5 -14 -9 -5 -9 8 0 24 4 35 9 13 5 14 9 5 9 -8 0
-24 -4 -35 -9z"/>
<path d="M2665 2000 c27 -27 51 -50 53 -50 2 0 -15 23 -38 50 -23 28 -47 50
-53 50 -6 0 11 -22 38 -50z"/>
<path d="M1410 4015 c-14 -8 -20 -14 -14 -15 5 0 19 7 30 15 24 18 16 19 -16
0z"/>
<path d="M1258 3939 c-65 -32 -118 -61 -118 -64 0 -3 54 22 120 55 66 33 120
62 120 65 0 7 7 10 -122 -56z"/>
<path d="M2250 3985 c0 -7 141 -77 146 -73 2 2 -30 21 -71 41 -41 20 -75 35
-75 32z"/>
<path d="M2410 3906 c0 -3 9 -10 20 -16 11 -6 20 -8 20 -6 0 3 -9 10 -20 16
-11 6 -20 8 -20 6z"/>
<path d="M2460 3876 c0 -3 14 -12 30 -21 17 -9 30 -13 30 -11 0 3 -13 12 -30
21 -16 9 -30 13 -30 11z"/>
<path d="M1050 3829 c-41 -22 -79 -45 -85 -51 -11 -11 144 70 160 84 17 15 0
8 -75 -33z"/>
<path d="M2530 3836 c0 -2 27 -18 60 -35 75 -39 79 -33 5 8 -54 30 -65 35 -65
27z"/>
<path d="M918 3754 c-38 -20 -36 -28 2 -9 17 9 30 18 30 20 0 7 -1 6 -32 -11z"/>
<path d="M2665 3763 c6 -5 64 -42 130 -83 158 -96 212 -131 320 -207 50 -35
74 -50 55 -33 -72 63 -560 375 -505 323z"/>
<path d="M823 3699 c-35 -22 -46 -37 -15 -20 22 13 58 40 52 41 -3 0 -20 -10
-37 -21z"/>
<path d="M652 3591 c-66 -44 -155 -105 -198 -137 -90 -66 -264 -214 -263 -223
2 -16 28 -74 28 -64 1 6 -3 22 -8 35 -11 30 -1 42 94 124 89 76 219 171 360
264 116 76 122 80 113 80 -4 0 -60 -36 -126 -79z"/>
<path d="M3240 3380 c40 -36 90 -73 90 -67 0 2 -28 25 -62 51 -35 26 -47 33
-28 16z"/>
<path d="M3360 3275 c13 -14 26 -25 28 -25 3 0 -5 11 -18 25 -13 14 -26 25
-28 25 -3 0 5 -11 18 -25z"/>
<path d="M3366 3094 c-15 -53 -25 -98 -23 -101 2 -2 16 40 31 93 15 53 25 98
23 101 -2 2 -16 -40 -31 -93z"/>
<path d="M221 3134 c0 -11 3 -14 6 -6 3 7 2 16 -1 19 -3 4 -6 -2 -5 -13z"/>
<path d="M232 3100 c0 -8 6 -31 13 -50 7 -19 13 -28 13 -20 0 8 -6 31 -13 50
-7 19 -13 28 -13 20z"/>
<path d="M261 3000 c0 -8 4 -24 9 -35 5 -13 9 -14 9 -5 0 8 -4 24 -9 35 -5 13
-9 14 -9 5z"/>
<path d="M3330 2977 c0 -4 -14 -54 -31 -113 -17 -58 -29 -108 -26 -110 2 -2
18 46 36 107 17 62 29 114 26 117 -3 3 -5 2 -5 -1z"/>
<path d="M280 2936 c0 -16 83 -296 87 -292 2 2 -15 68 -37 147 -38 131 -50
166 -50 145z"/>
<path d="M3252 2703 c-6 -21 -20 -71 -32 -112 -11 -40 -19 -75 -17 -77 2 -2 9
15 16 38 7 24 21 74 33 111 11 38 18 70 15 73 -2 3 -9 -12 -15 -33z"/>
<path d="M371 2614 c0 -11 3 -14 6 -6 3 7 2 16 -1 19 -3 4 -6 -2 -5 -13z"/>
<path d="M383 2575 c3 -11 16 -55 28 -98 12 -42 24 -75 26 -73 5 5 -44 177
-53 185 -4 3 -4 -3 -1 -14z"/>
<path d="M3136 2299 c-32 -110 -56 -202 -54 -204 2 -3 30 86 62 196 31 111 56
203 53 205 -2 2 -29 -86 -61 -197z"/>
<path d="M441 2374 c0 -11 3 -14 6 -6 3 7 2 16 -1 19 -3 4 -6 -2 -5 -13z"/>
<path d="M451 2345 c0 -5 8 -37 19 -70 10 -33 19 -51 19 -40 -1 21 -37 127
-38 110z"/>
<path d="M500 2176 c0 -16 63 -226 67 -222 2 2 -10 53 -27 112 -29 100 -40
130 -40 110z"/>
<path d="M3070 2077 c0 -4 -25 -93 -56 -198 -31 -105 -54 -192 -52 -194 2 -3
30 84 61 192 32 108 55 198 52 201 -3 3 -5 2 -5 -1z"/>
<path d="M571 1930 c0 -8 4 -24 9 -35 5 -13 9 -14 9 -5 0 8 -4 24 -9 35 -5 13
-9 14 -9 5z"/>
<path d="M591 1860 c0 -8 4 -24 9 -35 5 -13 9 -14 9 -5 0 8 -4 24 -9 35 -5 13
-9 14 -9 5z"/>
<path d="M611 1790 c0 -8 4 -24 9 -35 5 -13 9 -14 9 -5 0 8 -4 24 -9 35 -5 13
-9 14 -9 5z"/>
<path d="M632 1715 c19 -75 62 -214 66 -210 5 4 -57 217 -65 225 -3 3 -4 -4
-1 -15z"/>
<path d="M2946 1644 c-4 -14 -5 -28 -3 -31 3 -2 8 8 11 23 4 14 5 28 3 31 -3
2 -8 -8 -11 -23z"/>
<path d="M2910 1520 c-12 -44 -33 -94 -45 -111 -92 -124 -460 -494 -640 -644
-33 -28 -62 -52 -65 -55 -3 -3 -48 -38 -100 -77 -126 -93 -236 -163 -258 -163
-21 0 -212 127 -322 214 -126 100 -217 182 -415 375 l-190 186 155 -158 c159
-163 318 -308 450 -413 110 -87 301 -214 322 -214 39 0 271 164 458 324 131
111 430 408 544 540 79 91 89 106 112 183 14 47 24 87 21 89 -2 2 -14 -32 -27
-76z"/>
<path d="M706 1465 c7 -35 30 -67 113 -155 49 -51 45 -46 -17 26 -43 51 -84
107 -90 125 -11 32 -11 32 -6 4z"/>
<path d="M712 334 c4 -3 21 -13 40 -22 25 -13 34 -25 39 -52 l6 -35 2 36 c0
20 -5 41 -11 46 -15 11 -85 37 -76 27z"/>
<path d="M340 320 c8 -5 22 -9 30 -9 10 0 8 3 -5 9 -27 12 -43 12 -25 0z"/>
<path d="M2893 270 c0 -25 2 -35 4 -22 2 12 2 32 0 45 -2 12 -4 2 -4 -23z"/>
<path d="M473 250 c0 -30 2 -43 4 -27 2 15 2 39 0 55 -2 15 -4 2 -4 -28z"/>
<path d="M677 293 c-14 -13 -7 -61 11 -74 15 -13 16 -12 3 3 -7 10 -11 31 -9
48 5 32 5 33 -5 23z"/>
<path d="M1423 250 c0 -30 2 -43 4 -27 2 15 2 39 0 55 -2 15 -4 2 -4 -28z"/>
<path d="M2823 250 c0 -30 2 -43 4 -27 2 15 2 39 0 55 -2 15 -4 2 -4 -28z"/>
<path d="M3133 250 c0 -30 2 -43 4 -27 2 15 2 39 0 55 -2 15 -4 2 -4 -28z"/>
<path d="M295 270 c-8 -26 19 -70 43 -69 13 0 12 2 -5 9 -24 10 -37 39 -27 64
3 9 4 16 1 16 -3 0 -9 -9 -12 -20z"/>
<path d="M720 284 c0 -5 7 -18 15 -28 12 -16 15 -17 15 -4 0 8 -7 21 -15 28
-8 7 -15 9 -15 4z"/>
<path d="M1022 260 c0 -19 2 -27 5 -17 2 9 2 25 0 35 -3 9 -5 1 -5 -18z"/>
<path d="M1852 260 c0 -19 2 -27 5 -17 2 9 2 25 0 35 -3 9 -5 1 -5 -18z"/>
<path d="M1893 245 c0 -27 2 -38 4 -22 2 15 2 37 0 50 -2 12 -4 0 -4 -28z"/>
<path d="M340 271 c0 -5 5 -13 10 -16 6 -3 10 -2 10 4 0 5 -4 13 -10 16 -5 3
-10 2 -10 -4z"/>
<path d="M3002 250 c0 -19 2 -27 5 -17 2 9 2 25 0 35 -3 9 -5 1 -5 -18z"/>
<path d="M1280 265 c0 -5 5 -17 10 -25 5 -8 10 -10 10 -5 0 6 -5 17 -10 25 -5
8 -10 11 -10 5z"/>
<path d="M2167 249 c4 -13 8 -18 11 -10 2 7 -1 18 -6 23 -8 8 -9 4 -5 -13z"/>
<path d="M2779 232 c5 -34 6 -35 9 -8 2 16 0 32 -5 37 -5 5 -7 -7 -4 -29z"/>
<path d="M3066 257 c3 -10 9 -15 12 -12 3 3 0 11 -7 18 -10 9 -11 8 -5 -6z"/>
<path d="M862 230 c0 -19 2 -27 5 -17 2 9 2 25 0 35 -3 9 -5 1 -5 -18z"/>
<path d="M930 236 c0 -14 4 -27 8 -30 5 -3 6 8 4 25 -5 35 -12 38 -12 5z"/>
<path d="M1112 230 c0 -19 2 -27 5 -17 2 9 2 25 0 35 -3 9 -5 1 -5 -18z"/>
<path d="M1190 230 c0 -16 4 -30 8 -30 5 0 7 14 4 30 -2 17 -6 30 -8 30 -2 0
-4 -13 -4 -30z"/>
<path d="M1322 230 c0 -19 2 -27 5 -17 2 9 2 25 0 35 -3 9 -5 1 -5 -18z"/>
<path d="M1350 236 c0 -14 4 -27 8 -30 5 -3 6 8 4 25 -5 35 -12 38 -12 5z"/>
<path d="M2042 230 c0 -19 2 -27 5 -17 2 9 2 25 0 35 -3 9 -5 1 -5 -18z"/>
<path d="M2071 244 c0 -11 3 -14 6 -6 3 7 2 16 -1 19 -3 4 -6 -2 -5 -13z"/>
<path d="M2200 230 c0 -16 4 -30 8 -30 5 0 7 14 4 30 -2 17 -6 30 -8 30 -2 0
-4 -13 -4 -30z"/>
<path d="M2331 244 c0 -11 3 -14 6 -6 3 7 2 16 -1 19 -3 4 -6 -2 -5 -13z"/>
<path d="M2426 247 c3 -10 9 -15 12 -12 3 3 0 11 -7 18 -10 9 -11 8 -5 -6z"/>
<path d="M2462 230 c0 -19 2 -27 5 -17 2 9 2 25 0 35 -3 9 -5 1 -5 -18z"/>
<path d="M2490 230 c0 -16 4 -30 8 -30 5 0 7 14 4 30 -2 17 -6 30 -8 30 -2 0
-4 -13 -4 -30z"/>
<path d="M2856 247 c3 -10 9 -15 12 -12 3 3 0 11 -7 18 -10 9 -11 8 -5 -6z"/>
<path d="M1480 226 c0 -8 4 -17 9 -20 5 -4 7 3 4 14 -6 23 -13 26 -13 6z"/>
<path d="M1530 226 c0 -8 4 -17 9 -20 5 -4 7 3 4 14 -6 23 -13 26 -13 6z"/>
<path d="M1580 226 c0 -8 4 -17 9 -20 5 -4 7 3 4 14 -6 23 -13 26 -13 6z"/>
<path d="M1712 220 c0 -14 2 -19 5 -12 2 6 2 18 0 25 -3 6 -5 1 -5 -13z"/>
<path d="M1740 226 c0 -8 4 -17 9 -20 5 -4 7 3 4 14 -6 23 -13 26 -13 6z"/>
<path d="M2100 226 c0 -8 4 -17 9 -20 5 -4 7 3 4 14 -6 23 -13 26 -13 6z"/>
<path d="M2390 234 c0 -13 18 -39 24 -34 2 3 -2 14 -10 24 -8 11 -14 16 -14
10z"/>
<path d="M2550 226 c0 -8 4 -17 9 -20 5 -4 7 3 4 14 -6 23 -13 26 -13 6z"/>
<path d="M2752 220 c0 -14 2 -19 5 -12 2 6 2 18 0 25 -3 6 -5 1 -5 -13z"/>
<path d="M3040 226 c0 -8 4 -17 9 -20 5 -4 7 3 4 14 -6 23 -13 26 -13 6z"/>
<path d="M1056 215 c4 -8 11 -15 16 -15 6 0 5 6 -2 15 -7 8 -14 15 -16 15 -2
0 -1 -7 2 -15z"/>
<path d="M1931 214 c0 -11 3 -14 6 -6 3 7 2 16 -1 19 -3 4 -6 -2 -5 -13z"/>
<path d="M2250 221 c0 -6 4 -13 10 -16 6 -3 7 1 4 9 -7 18 -14 21 -14 7z"/>
<path d="M2670 221 c0 -6 4 -13 10 -16 6 -3 7 1 4 9 -7 18 -14 21 -14 7z"/>
<path d="M2920 221 c0 -6 4 -13 10 -16 6 -3 7 1 4 9 -7 18 -14 21 -14 7z"/>
<path d="M540 210 c0 -5 5 -10 11 -10 5 0 7 5 4 10 -3 6 -8 10 -11 10 -2 0 -4
-4 -4 -10z"/>
<path d="M2140 210 c0 -5 5 -10 11 -10 5 0 7 5 4 10 -3 6 -8 10 -11 10 -2 0
-4 -4 -4 -10z"/>
<path d="M2330 210 c0 -5 5 -10 11 -10 5 0 7 5 4 10 -3 6 -8 10 -11 10 -2 0
-4 -4 -4 -10z"/>
<path d="M3200 210 c0 -5 5 -10 11 -10 5 0 7 5 4 10 -3 6 -8 10 -11 10 -2 0
-4 -4 -4 -10z"/>
<path d="M750 190 c6 -11 16 -20 22 -20 6 0 3 9 -7 20 -10 11 -20 20 -22 20
-2 0 1 -9 7 -20z"/>
</g>
</svg>
